<svg width="50" height="50" viewBox="0 0 50 50" fill="none" xmlns="http://www.w3.org/2000/svg">
<g clip-path="url(#clip0_94_56)">
<mask id="mask0_94_56" style="mask-type:luminance" maskUnits="userSpaceOnUse" x="0" y="0" width="50" height="50">
<path d="M45 0H5C2.23858 0 0 2.23858 0 5V45C0 47.7614 2.23858 50 5 50H45C47.7614 50 50 47.7614 50 45V5C50 2.23858 47.7614 0 45 0Z" fill="white"/>
</mask>
<g mask="url(#mask0_94_56)">
<path d="M45 0H5C2.23858 0 0 2.23858 0 5V45C0 47.7614 2.23858 50 5 50H45C47.7614 50 50 47.7614 50 45V5C50 2.23858 47.7614 0 45 0Z" fill="url(#paint0_linear_94_56)"/>
<g filter="url(#filter0_d_94_56)">
<path d="M40.0611 4.93878H9.93872C7.1773 4.93878 4.93872 7.17736 4.93872 9.93878V40.0612C4.93872 42.8226 7.1773 45.0612 9.93872 45.0612H40.0611C42.8225 45.0612 45.0611 42.8226 45.0611 40.0612V9.93878C45.0611 7.17736 42.8225 4.93878 40.0611 4.93878Z" fill="url(#paint1_linear_94_56)" fill-opacity="0.95"/>
</g>
<path d="M26.4666 36.5966H36.5966" stroke="white" stroke-width="2" stroke-linecap="round"/>
<path d="M13.3364 27.3328C13.3364 27.3328 22.1202 29.8027 21.7209 31.7786C21.3217 33.7546 13.3364 35.7305 13.3364 35.7305" stroke="white" stroke-width="2" stroke-linecap="round"/>
</g>
</g>
<defs>
<filter id="filter0_d_94_56" x="0.938721" y="0.938782" width="48.1224" height="48.1224" filterUnits="userSpaceOnUse" color-interpolation-filters="sRGB">
<feFlood flood-opacity="0" result="BackgroundImageFix"/>
<feColorMatrix in="SourceAlpha" type="matrix" values="0 0 0 0 0 0 0 0 0 0 0 0 0 0 0 0 0 0 127 0" result="hardAlpha"/>
<feOffset/>
<feGaussianBlur stdDeviation="2"/>
<feComposite in2="hardAlpha" operator="out"/>
<feColorMatrix type="matrix" values="0 0 0 0 0 0 0 0 0 0 0 0 0 0 0 0 0 0 0.25 0"/>
<feBlend mode="normal" in2="BackgroundImageFix" result="effect1_dropShadow_94_56"/>
<feBlend mode="normal" in="SourceGraphic" in2="effect1_dropShadow_94_56" result="shape"/>
</filter>
<linearGradient id="paint0_linear_94_56" x1="2.04082" y1="2.04082" x2="48.9796" y2="48.9796" gradientUnits="userSpaceOnUse">
<stop stop-color="#0098FF"/>
<stop offset="1" stop-color="#5200A9"/>
</linearGradient>
<linearGradient id="paint1_linear_94_56" x1="-2.0213" y1="7.80467" x2="38.1012" y2="43.0142" gradientUnits="userSpaceOnUse">
<stop stop-color="#282828"/>
<stop offset="1" stop-color="#0C0C0C"/>
</linearGradient>
<clipPath id="clip0_94_56">
<rect width="50" height="50" fill="white"/>
</clipPath>
</defs>
</svg>
